<svg width="32" height="32" viewBox="0 0 32 32" fill="none" xmlns="http://www.w3.org/2000/svg">
<path d="M14.7104 21.7041C14.9544 21.4597 14.9544 21.0642 14.7104 20.8198C14.4662 20.5762 14.0706 20.5762 13.8261 20.8198C13.5824 21.0642 13.5824 21.4597 13.8261 21.7041C14.0706 21.9478 14.4662 21.9478 14.7104 21.7041Z" fill="#031126" fill-opacity="0.6"/>
<path d="M11.75 6.87306C11.75 10.6629 14.8342 13.7464 18.6252 13.7464C22.4162 13.7464 25.5004 10.6629 25.5004 6.87306C25.5004 3.08326 22.4162 0 18.6252 0C14.8342 0 11.75 3.08326 11.75 6.87306ZM24.2505 6.87306C24.2505 9.97389 21.727 12.4966 18.6252 12.4966C15.5234 12.4966 12.9999 9.97389 12.9999 6.87306C12.9999 3.77247 15.5234 1.24976 18.6252 1.24976C21.727 1.24976 24.2505 3.77247 24.2505 6.87306Z" fill="#031126" fill-opacity="0.6"/>
<path d="M7.19921 31.8152C7.44147 32.0593 7.83588 32.062 8.08132 31.8203L11.1116 28.8359C11.6264 28.3213 11.7829 27.5593 11.5565 26.8969L12.2083 26.2685C12.5593 25.9297 13.0213 25.7429 13.5098 25.7429H21.8188C23.2929 25.7429 24.6861 25.177 25.7423 24.1494C25.7858 24.1071 25.4124 24.5468 31.4109 17.3798C32.3005 16.3276 32.1674 14.7475 31.1139 13.8571C30.0669 12.975 28.4986 13.1017 27.6065 14.1359L23.9183 17.9255C23.4526 17.3525 22.7424 16.9953 21.9751 16.9953H15.0054C14.0136 16.5805 12.9613 16.3706 11.8755 16.3706C8.86574 16.3706 6.23773 17.7602 4.82737 20.3657C4.23319 20.2531 3.60653 20.4328 3.15571 20.8835L0.182369 23.8647C-0.0603822 24.1081 -0.0608706 24.5019 0.181392 24.7461L7.19921 31.8152ZM11.8752 17.6201C12.8326 17.6201 13.7581 17.8127 14.6268 18.1926C14.7059 18.2272 14.7912 18.2451 14.8774 18.2451H21.9751C22.6528 18.2451 23.2252 18.7976 23.2252 19.4946C23.2252 20.1838 22.6645 20.7443 21.9751 20.7443H16.8756C16.5305 20.7443 16.2506 21.0241 16.2506 21.3691C16.2506 21.7143 16.5305 21.9939 16.8756 21.9939H21.9751C23.3537 21.9939 24.4751 20.8728 24.4751 19.4946C24.4751 19.3847 24.4673 19.2758 24.4531 19.1679C28.0209 15.5017 28.524 14.9865 28.5455 14.9609C28.9909 14.4352 29.7817 14.3686 30.3077 14.812C30.8343 15.257 30.9009 16.0471 30.4543 16.5756L24.8483 23.2754C24.0297 24.061 22.9549 24.4934 21.8188 24.4934H13.5098C12.6956 24.4934 11.9248 24.8046 11.3401 25.3693L10.809 25.8818L5.91243 20.987C7.05683 18.8408 9.20423 17.6201 11.8752 17.6201ZM4.04026 21.7666C4.24638 21.5605 4.56289 21.5234 4.81419 21.6787C4.92237 21.7446 4.61173 21.4619 10.2277 27.0683C10.4776 27.3181 10.4641 27.716 10.2312 27.9489L7.64783 30.4931L1.50651 24.3068L4.04026 21.7666Z" fill="#031126" fill-opacity="0.6"/>
<path d="M17.8755 3.12427V3.85645C17.148 4.11426 16.6254 4.80884 16.6254 5.62354C16.6254 6.65699 17.4665 7.49805 18.5005 7.49805C18.8451 7.49805 19.1254 7.77833 19.1254 8.12281C19.1254 8.46729 18.8451 8.74757 18.5005 8.74757C18.2336 8.74757 17.9451 8.57984 17.689 8.27491C17.4667 8.01075 17.0726 7.97682 16.8083 8.19874C16.5441 8.42091 16.5099 8.81495 16.7321 9.07911C17.0662 9.47633 17.4592 9.75319 17.8755 9.89283V10.6221C17.8755 10.9673 18.1554 11.2468 18.5005 11.2468C18.8456 11.2468 19.1254 10.9673 19.1254 10.6221V9.8899C19.853 9.63185 20.3756 8.93727 20.3756 8.12281C20.3756 7.08912 19.5345 6.2483 18.5005 6.2483C18.1559 6.2483 17.8755 5.96802 17.8755 5.62354C17.8755 5.27906 18.1559 4.99854 18.5005 4.99854C18.722 4.99854 18.9557 5.11158 19.1765 5.3252C19.4246 5.56519 19.8202 5.5586 20.0603 5.3108C20.3004 5.06275 20.2938 4.66724 20.0459 4.42725C19.7287 4.12036 19.4112 3.94678 19.1254 3.85205V3.12427C19.1254 2.77905 18.8456 2.49927 18.5005 2.49927C18.1554 2.49927 17.8755 2.77905 17.8755 3.12427Z" fill="#031126" fill-opacity="0.6"/>
</svg>
