<svg width="31" height="32" viewBox="0 0 31 32" fill="none" xmlns="http://www.w3.org/2000/svg">
<path d="M26.89 5.34678H25.1305V3.58663C25.1305 3.21692 24.8305 2.91687 24.4608 2.91687H21.4877C21.118 2.91687 20.8179 3.21692 20.8179 3.58663V5.34678H19.0584C18.6887 5.34678 18.3887 5.64683 18.3887 6.01654V8.98962C18.3887 9.35933 18.6887 9.65939 19.0584 9.65939H20.8179V11.4128C20.8179 11.7825 21.118 12.0826 21.4877 12.0826H24.4608C24.8305 12.0826 25.1305 11.7825 25.1305 11.4128V9.65939H26.89C27.2597 9.65939 27.5598 9.35933 27.5598 8.98962V6.01654C27.5598 5.64683 27.2597 5.34678 26.89 5.34678ZM26.2202 8.31986H24.4608C24.091 8.31986 23.791 8.61991 23.791 8.98962V10.7431H22.1574V8.98962C22.1574 8.61991 21.8574 8.31986 21.4877 8.31986H19.7282V6.6863H21.4877C21.8574 6.6863 22.1574 6.38625 22.1574 6.01654V4.2564H23.791V6.01654C23.791 6.38625 24.091 6.6863 24.4608 6.6863H26.2202V8.31986Z" fill="#031126" fill-opacity="0.6"/>
<path d="M30.4738 7.50002C30.4738 3.36423 27.1096 0 22.9738 0C20.5566 0 18.4087 1.15467 17.0363 2.93558C15.2722 3.28921 13.8275 3.83239 13.3493 4.02461C12.2375 3.57721 6.92825 1.60676 3.38386 3.24434C1.9874 3.88999 1.03768 5.00448 0.559464 6.55766C-0.894595 11.2829 0.803928 14.6846 2.04433 17.1681C2.51852 18.1178 2.92842 18.9389 2.99004 19.537C3.02487 19.8739 3.05233 20.3602 3.08715 20.9455C3.32894 25.0867 3.75022 29.6471 5.69723 31.3389C6.2029 31.7783 6.77957 32 7.41316 32C7.48885 32 7.5652 31.9973 7.64222 31.9906C9.8357 31.8105 9.86584 29.5098 9.89196 27.4798C9.93349 24.2877 10.184 22.35 13.2857 22.35L13.3962 22.352C16.5119 22.352 16.7624 24.2897 16.8039 27.4798C16.8307 29.5098 16.8609 31.8098 19.0543 31.9886C19.7797 32.0489 20.432 31.8306 20.9973 31.3389C22.945 29.6485 23.3649 25.0833 23.6054 20.9368C23.6395 20.3541 23.667 19.8699 23.7012 19.5357C23.7641 18.9356 24.174 18.1151 24.6482 17.1654C25.0514 16.3577 25.5001 15.4454 25.8786 14.414C28.575 13.2774 30.4738 10.6064 30.4738 7.50002ZM23.4487 16.568C22.9169 17.6342 22.4567 18.5552 22.3683 19.3984C22.3322 19.7487 22.3027 20.253 22.2679 20.8598C22.1172 23.4585 21.803 28.8662 20.1193 30.3283C19.8286 30.5808 19.5272 30.6832 19.1642 30.6544C18.2774 30.5821 18.1723 29.6264 18.1435 27.4623C18.11 24.8945 18.0591 21.0125 13.4096 21.0125L13.2991 21.0105C8.63615 21.0105 8.58592 24.8931 8.55243 27.4623C8.5243 29.627 8.41915 30.5834 7.53305 30.6558C7.16669 30.6846 6.8673 30.5808 6.57596 30.3276C4.8915 28.8642 4.57604 23.4632 4.42467 20.8678C4.38918 20.2584 4.35904 19.752 4.32287 19.4011C4.23714 18.5598 3.77634 17.6382 3.24321 16.5706C2.10394 14.2894 0.544059 11.165 1.84005 6.95215C2.20641 5.76265 2.89493 4.94755 3.94445 4.46197C6.09105 3.46804 9.19473 4.10097 11.1632 4.69036C9.63946 5.08954 7.50224 5.54364 5.65503 5.54364C5.28532 5.54364 4.98527 5.84369 4.98527 6.2134C4.98527 6.58311 5.28532 6.88317 5.65503 6.88317C9.16393 6.88317 13.4343 5.42509 13.6601 5.34539C13.6734 5.33936 14.6788 4.91272 16.0886 4.53363C15.6948 5.44451 15.4738 6.44715 15.4738 7.50069C15.4738 11.6365 18.838 15.0007 22.9738 15.0007C23.4085 15.0007 23.8324 14.9558 24.247 14.8842C23.9845 15.4856 23.7072 16.0502 23.4487 16.568ZM22.9738 13.6612C19.5768 13.6612 16.8133 10.8977 16.8133 7.50069C16.8133 4.10365 19.5768 1.3402 22.9738 1.3402C26.3708 1.3402 29.1343 4.10365 29.1343 7.50069C29.1343 10.8977 26.3708 13.6612 22.9738 13.6612Z" fill="#031126" fill-opacity="0.6"/>
</svg>
