<svg width="13" height="12" viewBox="0 0 13 12" fill="none" xmlns="http://www.w3.org/2000/svg">
<path d="M12.5329 4.49002C12.4309 4.17725 12.1604 3.94986 11.8345 3.9024L8.53325 3.4227L7.05809 0.442012C6.766 -0.147337 5.80064 -0.147337 5.50855 0.442012L4.03339 3.4227L0.739926 3.9024C0.414955 3.94986 0.144478 4.17804 0.0425184 4.49095C-0.059441 4.80293 0.0252821 5.14606 0.261154 5.37583L2.64984 7.70406L2.08635 10.9889C2.03106 11.3129 2.16417 11.6414 2.43028 11.8349C2.69731 12.0276 3.05078 12.0528 3.34115 11.8998L6.28299 10.3485L9.23344 11.8998C9.35967 11.9663 9.49796 11.9992 9.63531 11.9992C9.81417 11.9992 9.99304 11.943 10.1443 11.8351C10.4106 11.6406 10.5435 11.3131 10.4882 10.989L9.92568 7.70419L12.3144 5.37597C12.5502 5.14686 12.6348 4.80293 12.5329 4.49002Z" fill="#FEB813"/>
</svg>
