<svg width="13" height="12" viewBox="0 0 13 12" fill="none" xmlns="http://www.w3.org/2000/svg">
<path d="M12.8423 4.49003C12.7394 4.17725 12.4699 3.94987 12.144 3.9024L8.84269 3.4227L7.36753 0.442012C7.07544 -0.147337 6.11008 -0.147337 5.81799 0.442012L4.34283 3.4227L1.04937 3.9024C0.724404 3.94987 0.453925 4.17805 0.351966 4.49095C0.250007 4.80293 0.334732 5.14607 0.570604 5.37584L2.95929 7.70407L2.39579 10.9889C2.3405 11.313 2.47362 11.6414 2.73972 11.8349C2.89007 11.9438 3.06814 11.9991 3.247 11.9991C3.38529 11.9991 3.52357 11.9662 3.65139 11.8997L6.59322 10.3484L9.54447 11.8997C9.83483 12.0544 10.1874 12.0284 10.4545 11.834C10.7199 11.6404 10.853 11.313 10.7977 10.9888L10.2351 7.70394L12.6238 5.37571C12.8595 5.14686 12.9435 4.80293 12.8423 4.49003Z" fill="#031126" fill-opacity="0.5"/>
</svg>
