<svg width="76" height="85" viewBox="0 0 76 85" fill="none" xmlns="http://www.w3.org/2000/svg">
<path d="M46.0594 16.5209C44.5182 16.7345 42.9271 17.1509 41.1973 17.7916C38.7235 18.7099 36.5131 18.7099 34.0358 17.7916C32.3237 17.158 30.6935 16.7309 29.1808 16.5209C23.8844 15.7699 19.9121 18.4038 18.3211 23.4759C17.2034 27.0602 17.2604 30.3278 18.5097 33.4778C18.7767 34.147 19.0614 34.8126 19.3462 35.4782C19.8801 36.7275 20.4354 38.016 20.8055 39.3045C21.4 41.3619 21.7772 43.3872 21.9374 45.3199C22.0798 47.0889 22.1403 48.8615 22.1937 50.6376C22.2684 52.8124 22.3432 55.0655 22.571 57.283C22.9234 60.7641 23.8061 65.0923 27.5399 67.6978C29.3623 68.9614 31.3235 68.8937 32.9146 67.502C35.5165 65.2276 35.6446 62.0099 35.4631 59.4507L35.3777 58.2903C35.2282 56.29 35.0751 54.2219 35.157 52.2856C35.2139 50.9117 35.5343 49.4168 36.0931 47.9503C36.3565 47.242 37.1645 47.1352 37.6236 47.1352C38.0757 47.1352 38.873 47.242 39.1435 47.9539C39.6917 49.4239 40.0156 50.9188 40.0725 52.2821C40.1544 54.2255 40.0013 56.3006 39.8483 58.3473L39.7664 59.4542C39.5849 62.0028 39.7059 65.2205 42.322 67.5056C43.1763 68.2459 44.0199 68.577 45.0557 68.577C45.9562 68.577 46.8425 68.2815 47.7003 67.6907C51.4163 65.0923 52.3026 60.7641 52.6585 57.2795C52.8827 55.0904 52.9611 52.8694 53.0358 50.6127C53.0892 48.8437 53.1461 47.0782 53.2885 45.3199C53.4522 43.3622 53.8331 41.3405 54.424 39.301C54.7941 38.0196 55.3458 36.7382 55.8833 35.496C56.1681 34.8268 56.4564 34.1505 56.7269 33.4707C57.9727 30.3242 58.0296 27.0567 56.9084 23.4759C55.3138 18.4038 51.2525 15.7734 46.0594 16.5209ZM53.4202 32.1537C53.1604 32.8015 52.8863 33.4458 52.6087 34.0865C52.057 35.3643 51.4305 36.8201 50.9998 38.3115C50.3413 40.5788 49.9178 42.8355 49.7398 45.0316C49.5903 46.854 49.5298 48.68 49.4693 50.5985C49.3981 52.6736 49.3269 54.8128 49.1134 56.92C48.8001 59.9597 48.1666 63.0208 45.6679 64.7649C45.2479 65.0603 45.1767 65.2774 44.657 64.8218C43.5144 63.8252 43.1229 62.3445 43.3151 59.7212L43.4005 58.5715C43.5536 56.4644 43.7173 54.2896 43.6248 52.1326C43.55 50.4027 43.1478 48.5234 42.468 46.7081C41.7419 44.7789 39.8839 43.5794 37.6201 43.5794C35.335 43.5794 33.4698 44.7824 32.758 46.7045C32.0746 48.5127 31.6723 50.3885 31.5976 52.1326C31.5086 54.2789 31.6723 56.4501 31.829 58.5929L31.9108 59.707C32.0995 62.3409 31.7079 63.8181 30.5689 64.8182C30.0457 65.281 29.9781 65.0532 29.5723 64.772C27.0558 63.0172 26.4222 59.9597 26.1126 56.92C25.8955 54.7843 25.8207 52.6167 25.7531 50.5166C25.689 48.6835 25.6321 46.8576 25.4826 45.0316C25.3082 42.8604 24.8846 40.6002 24.2225 38.3115C23.7919 36.8094 23.1654 35.3536 22.6173 34.0722C22.3432 33.4315 22.0727 32.7944 21.8164 32.1573C20.8838 29.8045 20.8518 27.313 21.7167 24.5366C22.8095 21.0733 25.2085 19.5606 28.686 20.0447C29.946 20.2227 31.3306 20.5857 32.7971 21.1303C36.0718 22.3476 39.1577 22.3476 42.4324 21.1303C43.9202 20.5786 45.2657 20.2227 46.5506 20.0447C50.7791 19.4609 52.7795 22.2195 53.5092 24.5402C54.3813 27.3094 54.3492 29.8045 53.4202 32.1537Z" fill="#031126" fill-opacity="0.75"/>
<path d="M75.1005 23.9458C75.1218 21.3652 75.1432 18.7847 75.1432 16.2077V12.8263C75.1432 11.851 74.7303 10.9113 74.0077 10.2528C73.3635 9.66552 72.552 9.33806 71.3382 9.3523C57.8303 10.5945 48.01 7.92854 39.8554 0.834677C38.5918 -0.279412 36.5345 -0.275853 35.278 0.831117C28.4582 6.77174 20.0866 9.66196 9.6789 9.66196C7.82445 9.66196 5.85967 9.57298 3.55675 9.38789C2.66334 9.38789 1.81977 9.71535 1.18263 10.3062C0.467197 10.9647 0.0578671 11.9008 0.0578671 12.869V16.3394C0.0578671 18.9804 0.0436299 21.6251 0.0293924 24.2697C-0.00620153 30.5413 -0.0453548 37.653 0.146852 44.5725C0.232278 47.4413 0.709235 51.6912 2.50317 55.6671C8.4865 68.8938 19.4459 78.3724 36.0006 84.6334C36.6235 84.8754 37.3176 85 38.065 85C39.0795 85 40.1651 84.7686 41.1083 84.3415C53.349 78.9419 61.9521 72.3321 68.1739 63.5404C73.1713 56.4822 75.4742 49.3064 75.2073 41.6004C75.0044 35.6348 75.0542 29.4273 75.1005 23.9458ZM65.273 61.4796C59.4392 69.7231 51.3024 75.952 39.6668 81.0847C38.8872 81.4335 37.8728 81.5403 37.2748 81.3089C21.6313 75.3932 11.3233 66.5268 5.75289 54.2006C4.19744 50.7622 3.78099 47.0071 3.7098 44.4692C3.51403 37.6067 3.55319 30.5307 3.58878 24.2875C3.60302 21.6393 3.61726 18.9876 3.61726 16.3394L3.53895 12.9437C17.8406 14.1895 28.8391 11.1783 37.5169 3.52202C45.0058 10.0357 54.1072 13.2036 65.3477 13.2036C67.3552 13.2036 69.4838 13.1039 71.5838 12.8334V16.2148C71.5838 18.7847 71.5624 21.351 71.5411 23.9244C71.4948 29.4379 71.445 35.6847 71.6514 41.7285C71.8935 48.6195 69.8077 55.0833 65.273 61.4796Z" fill="#031126" fill-opacity="0.75"/>
</svg>
