<svg width="97" height="85" viewBox="0 0 97 85" fill="none" xmlns="http://www.w3.org/2000/svg">
<path d="M48.4811 52.3564C46.2997 51.4888 44.3435 50.1997 42.6676 48.5238C41.4788 47.3339 40.4754 45.9889 39.6821 44.5263C39.1174 43.4787 37.809 43.0875 36.7603 43.6566C35.7138 44.2224 35.3247 45.5308 35.8905 46.5773C36.881 48.4074 38.1345 50.0877 39.6185 51.5718C41.7105 53.6648 44.1571 55.2771 46.8881 56.3614C47.149 56.4659 47.4184 56.5144 47.6825 56.5144C48.5404 56.5144 49.3508 55.9993 49.686 55.1543C50.1279 54.0485 49.588 52.795 48.4811 52.3564Z" fill="#031126" fill-opacity="0.75"/>
<path d="M83.4711 56.023C82.3146 54.8654 80.7756 54.2285 79.1384 54.2285C78.2525 54.2285 77.4021 54.43 76.6186 54.7857L71.6619 49.8279C77.553 42.5055 77.9583 32.2009 72.8669 24.4744C73.1848 18.5951 71.5186 13.2439 67.977 8.96518C62.531 2.39183 52.6952 -1.08722 43.5212 0.303107C41.1092 0.659851 38.7348 1.36687 36.4478 2.408C34.1608 1.36687 31.7864 0.658773 29.3808 0.304186C20.195 -1.08507 10.3613 2.39291 4.91643 8.96626C-4.81695 20.7409 1.03213 38.896 12.601 48.4624C13.2282 48.9829 13.5386 49.7503 13.4319 50.5134C11.7765 62.3473 12.2647 70.2496 19.5213 80.5973C20.3318 81.7548 21.387 82.8251 22.7741 83.9104C23.4563 84.4945 24.1569 84.8373 24.9867 84.9698C25.1441 84.9903 25.309 85 25.4814 85C27.0421 85 29.1265 84.1604 29.6589 82.3239C29.8324 81.7376 29.8529 81.0963 29.8119 80.4453C29.8486 80.1985 29.8507 79.9431 29.7958 79.6844C29.729 79.3697 29.6643 79.0809 29.5975 78.7845L29.5845 78.7166C29.5619 78.5948 29.5414 78.4762 29.5166 78.3641C29.5091 78.3286 29.4918 78.2973 29.4821 78.2618C29.3701 77.7714 29.2601 77.3004 29.1545 76.8477C28.3742 73.5152 27.859 71.3133 28.3666 67.5875C28.9389 63.396 32.168 61.3008 34.76 60.7813C37.3704 60.2586 40.8936 60.9549 42.9651 64.4749C45.4321 68.6706 44.2444 74.2837 43.1957 79.2361L43.1009 79.6844C43.0481 79.9345 43.0492 80.1824 43.0826 80.4216C43.0427 81.0629 43.0632 81.7149 43.2367 82.2872C43.7497 84.141 45.8255 84.9914 47.4573 84.9914C47.6437 84.9914 47.8248 84.9806 47.9961 84.958C48.7463 84.834 49.4404 84.4902 50.0471 83.9686C51.4968 82.8326 52.5541 81.7656 53.3829 80.5984C58.7696 72.9171 60.6891 66.4116 60.1621 57.1945C63.2542 56.4088 66.1577 54.9603 68.6377 52.8985L73.575 57.8369C72.5586 60.0926 72.9574 62.8356 74.8079 64.685L86.5061 76.3832C87.6626 77.5407 89.2016 78.1777 90.8388 78.1777C92.4748 78.1777 94.0128 77.5407 95.1703 76.3832C97.5587 73.9948 97.5587 70.1084 95.1703 67.72L83.4711 56.023ZM67.0566 48.5238C63.57 52.0104 58.7523 53.8383 53.8183 53.543C52.6381 53.4686 51.6078 54.375 51.5377 55.5649C51.4666 56.7537 52.3708 57.7743 53.5596 57.8466C53.9929 57.8724 54.4261 57.8854 54.8573 57.8854C55.1978 57.8854 55.5352 57.8509 55.8736 57.8347C56.2681 65.8458 54.5932 71.3629 49.8596 78.1141C49.2981 78.9052 48.5329 79.6726 47.3872 80.579C47.4034 80.3817 47.4357 80.1198 47.4939 79.7749C47.4982 79.7555 47.5025 79.7372 47.5058 79.7178H47.5068L47.5737 79.3675C48.687 74.0692 49.8435 67.6672 46.6813 62.2891C44.0299 57.7819 39.0226 55.5326 33.9118 56.5543C28.6727 57.6062 24.8186 61.7071 24.0965 67.0044C23.4811 71.5203 24.1331 74.3052 24.9587 77.8306C25.0924 78.4008 25.2336 79.013 25.3747 79.6488L25.3898 79.7286C25.3941 79.7469 25.3974 79.7663 25.4017 79.7846C25.4038 79.7933 25.406 79.8019 25.4082 79.8105C25.4599 80.1371 25.4901 80.386 25.5084 80.5757C24.395 79.7017 23.6147 78.9235 23.0554 78.1227C16.5424 68.8377 16.1404 62.2848 17.7031 51.1094C18.0179 48.8568 17.1416 46.6269 15.3525 45.1418C6.70015 37.9853 -0.585609 22.3867 8.23813 11.7124C12.6829 6.34727 21.1121 3.40925 28.7439 4.5657C31.0428 4.9052 33.3093 5.63055 35.48 6.72125C35.5479 6.75574 35.6211 6.77191 35.6912 6.79778C35.771 6.8549 35.8486 6.91525 35.938 6.9616C38.7413 8.44677 41.273 10.5204 43.2626 12.9594C43.6894 13.4821 44.3091 13.7527 44.9342 13.7527C45.4127 13.7527 45.8956 13.5942 46.2965 13.2677C47.218 12.5154 47.3559 11.1574 46.6037 10.2348C45.0668 8.35085 43.2539 6.65766 41.2601 5.21668C42.2182 4.93646 43.1839 4.70797 44.1603 4.56355C51.7791 3.40818 60.2149 6.34727 64.6585 11.7113C66.5155 13.9542 67.7367 16.5807 68.2852 19.4702C64.4829 16.4309 59.8032 14.7701 54.8648 14.7701C49.1063 14.7701 43.6937 17.0129 39.6218 21.0837C34.6511 26.0544 32.4137 33.1612 33.637 40.0913C33.8439 41.2628 34.9637 42.0442 36.1342 41.8395C37.3068 41.6325 38.0892 40.5138 37.8823 39.3422C36.9026 33.796 38.6917 28.1097 42.6687 24.1316C45.9257 20.8746 50.2562 19.0801 54.8626 19.0801C59.468 19.0801 63.7995 20.8746 67.0566 24.1316C73.7797 30.8591 73.7797 41.7996 67.0566 48.5238ZM92.1224 73.3363C91.4348 74.0239 90.2406 74.0218 89.5551 73.3363L77.857 61.6382C77.1499 60.9301 77.1499 59.7779 77.857 59.0709C78.1997 58.7282 78.6556 58.5396 79.1395 58.5396C79.6245 58.5396 80.0804 58.7282 80.4231 59.0709L92.1213 70.7691C92.8294 71.4772 92.8294 72.6282 92.1224 73.3363Z" fill="#031126" fill-opacity="0.75"/>
<path d="M54.3109 29.0582C55.4641 26.894 55.3585 24.7729 55.1914 23.7016C55.0082 22.5247 53.8938 21.7217 52.7309 21.9017C51.5539 22.0839 50.7488 23.1864 50.931 24.3623C51.0151 24.9033 51.0722 25.9693 50.5053 27.0298C49.5353 28.8534 47.4498 29.236 47.2148 29.2737C46.039 29.4623 45.2403 30.5681 45.4289 31.744C45.5992 32.8034 46.5143 33.5579 47.5554 33.5579C47.6675 33.5579 47.7839 33.5482 47.8992 33.5298C48.6353 33.4134 52.4022 32.6418 54.3109 29.0582Z" fill="#031126" fill-opacity="0.75"/>
<path d="M62.5267 39.6979C61.824 39.4489 58.1488 38.3184 54.7538 40.5461C53.2396 41.5398 52.0519 43.0573 51.4117 44.8184C51.0053 45.9371 51.5819 47.1744 52.7007 47.5807C52.9443 47.6691 53.1932 47.7112 53.4379 47.7112C54.3184 47.7112 55.1451 47.1669 55.4641 46.2917C55.6516 45.7755 56.1161 44.8087 57.1195 44.1513C58.8472 43.0174 60.8594 43.6814 61.0825 43.7622C62.2013 44.1599 63.4375 43.5747 63.8362 42.4527C64.2339 41.3286 63.6476 40.0967 62.5267 39.6979Z" fill="#031126" fill-opacity="0.75"/>
<path d="M64.1369 36.068C65.425 36.068 66.4692 35.0238 66.4692 33.7357C66.4692 32.4476 65.425 31.4034 64.1369 31.4034C62.8488 31.4034 61.8046 32.4476 61.8046 33.7357C61.8046 35.0238 62.8488 36.068 64.1369 36.068Z" fill="#031126" fill-opacity="0.75"/>
<path d="M44.2487 47.1701C45.5368 47.1701 46.581 46.1259 46.581 44.8378C46.581 43.5497 45.5368 42.5055 44.2487 42.5055C42.9606 42.5055 41.9164 43.5497 41.9164 44.8378C41.9164 46.1259 42.9606 47.1701 44.2487 47.1701Z" fill="#031126" fill-opacity="0.75"/>
<path d="M53.1393 37.4023C53.9292 37.4023 54.5695 36.762 54.5695 35.9721C54.5695 35.1822 53.9292 34.5419 53.1393 34.5419C52.3494 34.5419 51.7091 35.1822 51.7091 35.9721C51.7091 36.762 52.3494 37.4023 53.1393 37.4023Z" fill="#031126" fill-opacity="0.75"/>
<path d="M60.6708 26.0576C61.625 26.0576 62.3985 25.2841 62.3985 24.3299C62.3985 23.3757 61.625 22.6022 60.6708 22.6022C59.7166 22.6022 58.9431 23.3757 58.9431 24.3299C58.9431 25.2841 59.7166 26.0576 60.6708 26.0576Z" fill="#031126" fill-opacity="0.75"/>
<path d="M60.3744 50.5576C61.1643 50.5576 61.8046 49.9172 61.8046 49.1273C61.8046 48.3375 61.1643 47.6971 60.3744 47.6971C59.5845 47.6971 58.9442 48.3375 58.9442 49.1273C58.9442 49.9172 59.5845 50.5576 60.3744 50.5576Z" fill="#031126" fill-opacity="0.75"/>
<path d="M42.8185 30.5778C43.6084 30.5778 44.2487 29.9374 44.2487 29.1476C44.2487 28.3577 43.6084 27.7173 42.8185 27.7173C42.0286 27.7173 41.3883 28.3577 41.3883 29.1476C41.3883 29.9374 42.0286 30.5778 42.8185 30.5778Z" fill="#031126" fill-opacity="0.75"/>
<path d="M23.1394 8.40149C23.1179 8.40149 23.0974 8.40149 23.0758 8.40149C18.9846 8.40149 15.6694 9.58273 13.2196 11.9129C12.3574 12.7331 12.3239 14.0975 13.1441 14.9608C13.5688 15.4059 14.1368 15.6301 14.7058 15.6301C15.2393 15.6301 15.7739 15.4329 16.1921 15.0363C17.812 13.494 20.1281 12.7126 23.0769 12.7126C23.0963 12.7126 23.1114 12.7137 23.1329 12.7126C24.3207 12.7126 25.2853 11.7512 25.2885 10.5635C25.2917 9.37364 24.3293 8.4058 23.1394 8.40149Z" fill="#031126" fill-opacity="0.75"/>
<path d="M12.3541 16.4622C11.2214 16.1065 10.0078 16.7327 9.64892 17.8687C9.28894 19.009 9.02166 20.2549 8.85352 21.5741C8.70156 22.7553 9.53791 23.8342 10.7181 23.985C10.8108 23.9969 10.9024 24.0023 10.994 24.0023C12.0621 24.0023 12.99 23.208 13.1291 22.1194C13.2649 21.0546 13.4761 20.0609 13.7596 19.1663C14.1195 18.0325 13.489 16.8211 12.3541 16.4622Z" fill="#031126" fill-opacity="0.75"/>
</svg>
