<svg width="62" height="85" viewBox="0 0 62 85" fill="none" xmlns="http://www.w3.org/2000/svg">
<path d="M6.58268 31.9808C8.07159 33.2387 9.33817 34.7383 10.3294 36.4167C10.4858 36.6805 10.7082 36.8991 10.9747 37.0509C11.2411 37.2028 11.5426 37.2826 11.8493 37.2827H14.836V44.3519C14.836 44.8206 15.0222 45.2702 15.3536 45.6016C15.6851 45.933 16.1346 46.1192 16.6033 46.1192H21.9052V49.6538H20.1379V53.1884H21.9052V56.7231H20.1379V60.2577H21.9052V63.7923H20.1379V67.3269H21.9052V70.8615H20.1379V74.3961H21.9052V77.9308C21.9052 78.2051 21.9691 78.4757 22.0918 78.7211C22.2145 78.9665 22.3927 79.18 22.6122 79.3446L29.6814 84.6465C29.9873 84.876 30.3594 85 30.7418 85C31.1242 85 31.4963 84.876 31.8022 84.6465L38.8714 79.3446C39.0909 79.18 39.269 78.9665 39.3917 78.7211C39.5144 78.4757 39.5783 78.2051 39.5783 77.9308V74.3961H41.3456V70.8615H39.5783V67.3269H41.3456V63.7923H39.5783V60.2577H41.3456V56.7231H39.5783V53.1884H41.3456V49.6538H39.5783V46.1192H44.8802C45.349 46.1192 45.7985 45.933 46.1299 45.6016C46.4614 45.2702 46.6476 44.8206 46.6476 44.3519V37.2827H49.6343C49.941 37.2826 50.2424 37.2028 50.5089 37.0509C50.7754 36.8991 50.9978 36.6805 51.1542 36.4167C52.1454 34.7383 53.412 33.2387 54.9009 31.9808C56.7852 30.4311 58.3357 28.5154 59.4586 26.3494C60.5815 24.1835 61.2536 21.8124 61.4341 19.3794C61.6146 16.9463 61.2999 14.502 60.5089 12.1941C59.7179 9.88614 58.4671 7.76259 56.8321 5.95178C55.1972 4.14098 53.2119 2.68055 50.9965 1.65877C48.7811 0.636983 46.3815 0.0750788 43.9427 0.00702239C41.5039 -0.061034 39.0767 0.366171 36.8077 1.26281C34.5388 2.15945 32.4752 3.5069 30.7418 5.2237C29.0084 3.5069 26.9448 2.15945 24.6758 1.26281C22.4069 0.366171 19.9796 -0.061034 17.5409 0.00702239C15.1021 0.0750788 12.7025 0.636983 10.4871 1.65877C8.27163 2.68055 6.28641 4.14098 4.65143 5.95178C3.01645 7.76259 1.76565 9.88614 0.974672 12.1941C0.183689 14.502 -0.131056 16.9463 0.0494647 19.3794C0.229986 21.8124 0.902022 24.1835 2.02495 26.3494C3.14787 28.5154 4.69836 30.4311 6.58268 31.9808ZM36.0437 77.0294L30.7418 81.0059L25.4399 77.0294V74.3961H36.0437V77.0294ZM36.0437 70.8615H25.4399V67.3269H36.0437V70.8615ZM36.0437 63.7923H25.4399V60.2577H36.0437V63.7923ZM36.0437 56.7231H25.4399V53.1884H36.0437V56.7231ZM36.0437 49.6538H25.4399V46.1192H36.0437V49.6538ZM43.1129 42.5846H18.3706V37.2827H43.1129V42.5846ZM3.93172 15.6508C4.4283 12.9334 5.69029 10.4142 7.56935 8.38937C9.4484 6.36451 11.8664 4.91813 14.5392 4.22023C17.212 3.52233 20.0285 3.60192 22.6576 4.44965C25.2868 5.29737 27.6192 6.878 29.381 9.00574C29.5468 9.20587 29.7547 9.36696 29.9899 9.47753C30.2252 9.5881 30.4819 9.64543 30.7418 9.64543C31.0017 9.64543 31.2584 9.5881 31.4936 9.47753C31.7288 9.36696 31.9368 9.20587 32.1026 9.00574C33.3748 7.42359 34.9648 6.12603 36.7699 5.19693C38.575 4.26783 40.555 3.72788 42.5819 3.61198C44.6087 3.49608 46.6374 3.80683 48.5366 4.52411C50.4358 5.2414 52.1634 6.34927 53.6076 7.77609C55.0519 9.20292 56.1806 10.9169 56.9208 12.8073C57.6611 14.6977 57.9964 16.7225 57.9051 18.7506C57.8138 20.7787 57.2978 22.7651 56.3907 24.5813C55.4835 26.3975 54.2053 28.0032 52.6387 29.2944C51.102 30.5759 49.7621 32.0765 48.6623 33.7481H12.8213C11.7228 32.0702 10.3829 30.5636 8.84483 29.2768C6.89542 27.6418 5.41386 25.5197 4.55086 23.1263C3.68787 20.7329 3.47424 18.1536 3.93172 15.6508Z" fill="#031126" fill-opacity="0.75"/>
<path d="M43.5016 10.7731L40.992 8.22815C39.6545 9.59037 38.0595 10.6731 36.2998 11.4134C34.5401 12.1537 32.6507 12.5368 30.7417 12.5404C28.8375 12.546 26.9512 12.1741 25.1917 11.446C23.4323 10.718 21.8347 9.64829 20.4913 8.29884L17.9817 10.7731C19.6519 12.4573 21.6398 13.7932 23.8301 14.7033C26.0205 15.6134 28.3697 16.0797 30.7417 16.075C33.1136 16.0797 35.4628 15.6134 37.6532 14.7033C39.8436 13.7932 41.8315 12.4573 43.5016 10.7731Z" fill="#031126" fill-opacity="0.75"/>
</svg>
